Coordinates
version=1
nRows=38
nColumns=12
inDegrees=yes

Units are S.I. units (second, meters, Newtons, ...)
Angles are in degrees

endheader
time	SC_y	SC_z	SC_x	AC_y	AC_z	AC_x	GH_y	GH_z	GH_yy	EL_x	PS_y
       0.0              -54.74          26.33          31.29          68.28         -9.548          19.22          167.4         -6.254         -124.7          139.8          10.68
   0.00928              -54.73          26.33           31.3          68.28         -9.546          19.22          167.4          -6.24         -124.7          139.7          10.68
   0.01856              -54.73          26.34           31.3          68.27         -9.545          19.22          167.3         -6.225         -124.6          139.7          10.68
   0.02784              -54.72          26.34          31.31          68.27         -9.543          19.22          167.3          -6.21         -124.6          139.7          10.68
   0.03712              -54.72          26.34          31.31          68.26         -9.541          19.22          167.3         -6.193         -124.5          139.7          10.68
    0.0464              -54.71          26.34          31.32          68.25         -9.539          19.21          167.2         -6.175         -124.5          139.7          10.68
   0.05568               -54.7          26.34          31.33          68.25         -9.537          19.21          167.2         -6.156         -124.4          139.7          10.68
   0.06496              -54.69          26.34          31.33          68.24         -9.535          19.21          167.2         -6.136         -124.4          139.7          10.68
   0.07424              -54.68          26.34          31.34          68.23         -9.532          19.21          167.1         -6.114         -124.3          139.7          10.68
   0.08352              -54.67          26.34          31.35          68.23          -9.53          19.21          167.1         -6.091         -124.2          139.7          10.68
    0.0928              -54.66          26.34          31.36          68.22         -9.527          19.21          167.1         -6.066         -124.2          139.7          10.68
    0.1021              -54.65          26.35          31.37          68.21         -9.524          19.21          167.0         -6.039         -124.1          139.6          10.68
    0.1114              -54.64          26.35          31.38           68.2         -9.521          19.21          167.0          -6.01         -124.0          139.6          10.68
    0.1206              -54.63          26.35          31.39          68.19         -9.517           19.2          166.9         -5.978         -123.9          139.6          10.68
    0.1299              -54.62          26.35           31.4          68.17         -9.513           19.2          166.9         -5.944         -123.8          139.6          10.68
    0.1392               -54.6          26.35          31.41          68.16         -9.509           19.2          166.8         -5.907         -123.7          139.6          10.68
    0.1485              -54.58          26.36          31.42          68.15         -9.505           19.2          166.7         -5.867         -123.5          139.6          10.68
    0.1578              -54.57          26.36          31.44          68.13           -9.5           19.2          166.6         -5.824         -123.4          139.5          10.69
     0.167              -54.55          26.36          31.46          68.12         -9.494          19.19          166.6         -5.776         -123.3          139.5          10.69
    0.1763              -54.53          26.36          31.47           68.1         -9.489          19.19          166.5         -5.724         -123.1          139.5          10.69
    0.1856               -54.5          26.37          31.49          68.08         -9.482          19.19          166.4         -5.667         -122.9          139.4          10.69
    0.1949              -54.48          26.37          31.51          68.06         -9.475          19.19          166.3         -5.604         -122.7          139.4          10.69
    0.2042              -54.45          26.37          31.54          68.03         -9.467          19.18          166.2         -5.534         -122.5          139.4          10.69
    0.2135              -54.42          26.38          31.56          68.01         -9.459          19.18          166.0         -5.457         -122.3          139.3          10.69
    0.2227              -54.38          26.38          31.59          67.98         -9.449          19.17          165.9         -5.371         -122.0          139.3          10.69
     0.232              -54.35          26.39          31.63          67.94         -9.439          19.17          165.7         -5.275         -121.7          139.2           10.7
    0.2413               -54.3           26.4          31.66          67.91         -9.427          19.16          165.5         -5.168         -121.4          139.2           10.7
    0.2506              -54.25           26.4           31.7          67.86         -9.413          19.16          165.3         -5.048         -121.0          139.1           10.7
    0.2599               -54.2          26.41          31.75          67.82         -9.398          19.15          165.1         -4.911         -120.6          139.1           10.7
    0.2691              -54.14          26.42           31.8          67.76         -9.381          19.14          164.8         -4.757         -120.1          139.0          10.71
    0.2784              -54.07          26.43          31.86           67.7         -9.361          19.13          164.5          -4.58         -119.6          138.9          10.71
    0.2877              -53.98          26.44          31.93          67.63         -9.338          19.12          164.2         -4.377         -119.0          138.8          10.72
     0.297              -53.89          26.45          32.01          67.55         -9.312          19.11          163.8         -4.143         -118.2          138.7          10.72
    0.3063              -53.78          26.47           32.1          67.45         -9.282           19.1          163.3         -3.871         -117.4          138.5          10.73
    0.3155              -53.65          26.49          32.21          67.34         -9.246          19.08          162.8         -3.553         -116.4          138.3          10.73
    0.3248               -53.5          26.51          32.34          67.21         -9.204          19.06          162.2         -3.178         -115.3          138.1          10.74
    0.3341              -53.32          26.53          32.49          67.06         -9.155          19.04          161.4         -2.732         -113.9          137.9          10.75
    0.3434              -53.11          26.57          32.67          66.87         -9.095          19.01          160.5         -2.198         -112.3          137.6          10.76
